<svg width="56" height="56" viewBox="0 0 56 56" fill="none" xmlns="http://www.w3.org/2000/svg">
<path d="M50.7817 46.8287L46.0108 33.624C48.2658 30.5867 49.6082 26.9698 49.8805 23.1977C50.1533 19.4247 49.3447 15.6526 47.5499 12.3228C45.7548 8.99315 43.048 6.24404 39.7465 4.39759C36.4451 2.55154 32.6859 1.6845 28.9098 1.89893C25.1333 2.11293 21.496 3.39891 18.4243 5.60638C15.3526 7.81386 12.9739 10.8511 11.5667 14.3622L11.5275 14.4351L11.5271 14.4355C11.5259 14.454 11.5259 14.4728 11.5271 14.4916L4.91922 29.5225C4.51433 30.4393 4.60017 31.4983 5.14812 32.3379C5.69606 33.1771 6.63084 33.6823 7.63313 33.6804H9.65598L10.1169 40.721C10.1201 42.6694 10.8953 44.537 12.273 45.9148C13.6504 47.2925 15.5184 48.0678 17.4664 48.0709H29.6206C30.0701 48.9587 31.1488 51.4029 32.0875 53.6225C32.2212 53.9317 32.5257 54.1324 32.8628 54.1336C32.9604 54.134 33.0576 54.1168 33.1493 54.083L50.2643 47.9019L50.2647 47.9023C50.4763 47.8298 50.65 47.6754 50.7472 47.4735C50.8444 47.272 50.8565 47.0396 50.7817 46.8291L50.7817 46.8287ZM33.3627 52.2286C30.8734 46.385 30.7837 46.385 30.1259 46.385L17.4661 46.3846C15.9555 46.3803 14.5092 45.7743 13.4463 44.7008C12.3833 43.6277 11.7918 42.175 11.8024 40.6644L11.2854 32.798C11.2588 32.3555 10.8915 32.0105 10.4482 32.0113H7.63868C7.20518 32.0117 6.80068 31.7934 6.56394 31.4305C6.3268 31.0679 6.28917 30.6097 6.46438 30.213L12.9598 15.3617C13.0001 15.3069 13.0327 15.2461 13.0554 15.1818C14.4676 11.5143 17.0326 8.40418 20.3642 6.31982C23.6961 4.23546 27.6149 3.28926 31.531 3.62359C35.7852 4.00182 39.7741 5.85103 42.8122 8.853C45.8498 11.8546 47.7465 15.8215 48.1752 20.071C48.6103 24.694 47.2593 29.3082 44.3992 32.9667C44.222 33.1948 44.1734 33.4978 44.2698 33.7702L48.9 46.6096L33.3627 52.2286Z" fill="#F2A95D"/>
<path d="M36.7903 16.8792H33.7617C33.369 16.878 33.0213 16.624 32.9018 16.2497L31.9634 13.3951C31.8011 12.8711 31.4739 12.4137 31.0306 12.0903C30.5869 11.7673 30.0511 11.5965 29.5024 11.6027C28.9533 11.5961 28.4163 11.767 27.9718 12.0899C27.5273 12.4129 27.1989 12.8707 27.0358 13.3951L26.103 16.2721C25.9827 16.6484 25.6326 16.9031 25.2375 16.9016H22.2089C21.4748 16.9016 20.7747 17.2128 20.2836 17.7584C19.7921 18.304 19.5553 19.0326 19.6321 19.7629C19.709 20.4931 20.0919 21.1563 20.6861 21.5878L23.1358 23.3693C23.4572 23.5966 23.5917 24.0074 23.4674 24.3805L22.5291 27.263V27.2633C22.3539 27.7831 22.3507 28.3451 22.5208 28.8668C22.6909 29.3881 23.0249 29.8408 23.4733 30.157C23.9131 30.4851 24.4469 30.6627 24.996 30.6627C25.5448 30.6627 26.079 30.4851 26.5188 30.157L28.9685 28.3756C29.2871 28.1451 29.7175 28.1451 30.0362 28.3756L32.4859 30.157H32.4863C33.0797 30.5866 33.8279 30.7446 34.5449 30.5917C35.2617 30.4392 35.8803 29.9897 36.2471 29.3555C36.614 28.721 36.6951 27.9606 36.4702 27.2632L35.5373 24.3808V24.3804C35.4138 24.0084 35.5455 23.5992 35.8634 23.3692L38.319 21.5877H38.3186C38.9266 21.1601 39.3216 20.4922 39.4032 19.7534C39.4847 19.015 39.2453 18.2769 38.7451 17.7271C38.2454 17.1772 37.5336 16.8683 36.7905 16.8793L36.7903 16.8792ZM37.3524 20.2002L34.9027 21.9817L34.9023 21.9813C34.4528 22.298 34.1153 22.7499 33.9397 23.2711C33.7637 23.7924 33.7586 24.356 33.9248 24.8805L34.8631 27.7574C34.9889 28.1313 34.8576 28.5441 34.539 28.7765C34.2199 29.0093 33.7872 29.0085 33.4694 28.7745L31.0252 26.9935C30.5835 26.6701 30.05 26.4957 29.5024 26.4957C28.9549 26.4957 28.4218 26.6701 27.9797 26.9935L25.53 28.7749V28.7745C25.2121 29.0085 24.7794 29.0093 24.4604 28.7765C24.1417 28.5441 24.0104 28.1313 24.1362 27.7574L25.0691 24.8805C25.2399 24.3604 25.2411 23.7991 25.0726 23.2778C24.904 22.7569 24.574 22.3026 24.1307 21.9812L21.681 20.1997H21.6806C21.3655 19.9697 21.2334 19.5628 21.3537 19.1912C21.4737 18.8197 21.8186 18.5672 22.209 18.5649H25.2376C25.7864 18.5657 26.3214 18.392 26.7647 18.0687C27.2084 17.7453 27.5376 17.2895 27.7046 16.7666L28.643 13.8841C28.7645 13.5121 29.1113 13.2609 29.5025 13.2609C29.8937 13.2609 30.2406 13.5121 30.3624 13.8841L31.3008 16.7666C31.4685 17.2875 31.797 17.7413 32.2391 18.0636C32.6816 18.3857 33.2147 18.5594 33.7619 18.559H36.7905C37.1872 18.5464 37.5458 18.7938 37.6748 19.1692C37.8037 19.5447 37.6732 19.9602 37.3526 20.1942L37.3524 20.2002Z" fill="#F2A95D"/>
</svg>
