<svg width="68" height="70" viewBox="0 0 68 70" fill="none" xmlns="http://www.w3.org/2000/svg">
<path d="M34.415 27.8888C39.4056 27.8888 43.4673 23.827 43.4673 18.8354C43.4673 13.8413 39.4056 9.78003 34.415 9.78003C29.4234 9.78003 25.3605 13.8428 25.3605 18.8354C25.3615 23.8279 29.4233 27.8888 34.415 27.8888ZM34.415 13.1662C37.5384 13.1662 40.0808 15.7096 40.0808 18.835C40.0808 21.9595 37.5389 24.5019 34.415 24.5019C31.289 24.5019 28.747 21.96 28.747 18.835C28.748 15.7091 31.2905 13.1662 34.415 13.1662Z" fill="#1BB57C"/>
<path d="M32.6359 54.0216C33.0592 54.5986 33.7401 54.9418 34.4566 54.9418H34.4738C34.4909 54.9418 34.5075 54.9418 34.5247 54.9408C35.2584 54.9181 35.9377 54.5412 36.3318 53.9486C36.3666 53.8966 40.2793 47.9803 44.1017 40.8321C49.3509 31.0031 52.0126 23.4725 52.0126 18.4463C52.0126 8.76552 44.1345 0.890625 34.3795 0.890625C24.6962 0.890625 16.82 8.76629 16.82 18.4463C16.82 24.4745 19.503 32.32 24.7964 41.7636C28.696 48.728 32.6188 54.0009 32.6359 54.0216ZM34.4511 4.27796C42.2662 4.27796 48.6241 10.6343 48.6241 18.4471C48.6241 22.9106 46.0968 29.9048 41.1128 39.2371C38.4601 44.1995 35.7609 48.5601 34.4088 50.6847C33.0406 48.7363 30.3812 44.8067 27.7497 40.1098C22.7434 31.1774 20.2055 23.8894 20.2055 18.4491C20.2045 10.6349 26.5633 4.27861 34.4508 4.27861L34.4511 4.27796Z" fill="#1BB57C"/>
<path d="M45.4059 39.9093C44.4882 39.7748 43.6169 40.3982 43.4713 41.3214C43.3281 42.2446 43.9601 43.1119 44.8833 43.256C56.2528 45.0294 64.1935 49.4818 64.1935 54.0802C64.1935 59.5869 51.7934 65.7218 33.9974 65.7218C16.2031 65.7218 3.80134 59.5867 3.80134 54.0802C3.80134 49.4812 11.7415 45.0294 23.1116 43.256C24.0348 43.1114 24.6673 42.2446 24.5227 41.3214C24.3795 40.3981 23.5123 39.7727 22.5891 39.9093C9.12042 42.0113 0.417404 47.5743 0.417404 54.0811C0.417404 62.508 15.1684 69.1095 34 69.1095C52.8329 69.1095 67.5826 62.5078 67.5826 54.0811C67.5826 47.5746 58.8779 42.0116 45.4071 39.9093H45.4059Z" fill="#1BB57C"/>
</svg>
