<svg width="129" height="129" viewBox="0 0 129 129" fill="none" xmlns="http://www.w3.org/2000/svg">
<circle opacity="0.25" cx="85" cy="67" r="32" fill="#F2A95D"/>
<path d="M89.7572 48.2474C90.1026 47.6993 90.075 46.9986 89.6897 46.4775L82.8938 37.3085C82.4074 36.6528 81.497 36.4732 80.7972 36.8961L76.4968 39.4853C74.466 40.7071 71.9742 40.8087 69.8716 39.7543C67.7038 38.6654 66.0942 36.4595 65.5697 33.8533L65.049 31.2658C64.9008 30.5299 64.2503 30 63.4953 30H46.5036C45.7485 30 45.0979 30.5299 44.9499 31.2658L44.4292 33.8533C43.9046 36.46 42.2962 38.6658 40.1272 39.7543C38.0252 40.8092 35.5333 40.7076 33.502 39.4853L29.2016 36.8961C28.5029 36.4743 27.5903 36.6528 27.1051 37.3085L20.3091 46.4784C19.9238 46.999 19.8962 47.7003 20.2417 48.2483L25.2004 56.117C29.1293 62.3514 28.9474 70.5797 24.7477 76.5909L20.2825 82.9834C19.9354 83.481 19.9055 84.1322 20.2074 84.6589L27.0033 96.5367C27.3466 97.1374 28.0419 97.4438 28.7246 97.2956L32.3025 96.5059C33.8335 96.1682 35.3996 95.9974 36.9577 95.9974C42.2663 95.9974 47.4936 97.9984 51.6782 101.634L53.9571 103.613C54.2556 103.87 54.6271 104 54.9996 104C55.3722 104 55.7436 103.87 56.0427 103.611L58.3216 101.631C62.5053 97.9963 67.7332 95.9952 73.0422 95.9952C74.601 95.9952 76.1668 96.166 77.6973 96.5048L81.2752 97.2945C81.9568 97.4427 82.6527 97.1363 82.9965 96.5356L89.7925 84.6578C90.0943 84.1311 90.065 83.4793 89.7173 82.9823L85.2512 76.5898C81.0513 70.5778 80.8706 62.3505 84.7996 56.1159L89.7572 48.2474ZM82.6466 78.3861L86.5435 83.9637L80.8181 93.969L78.3839 93.4319C76.6289 93.0437 74.8314 92.8477 73.0415 92.8477C66.9662 92.8477 60.9978 95.126 56.2352 99.2621L54.9993 100.336L53.7633 99.2621C49.0009 95.126 43.0323 92.8477 36.957 92.8477C35.1667 92.8477 33.3696 93.0442 31.6147 93.4319L29.1804 93.9695L23.455 83.9642L27.3519 78.3866C32.2642 71.3545 32.4797 61.7336 27.8869 54.446L23.5003 47.4851L28.7984 40.337L31.8601 42.1798C34.8151 43.9595 38.4908 44.1056 41.5563 42.5664C44.5876 41.0453 46.8229 38.0195 47.5376 34.4721L47.8029 33.1493H62.1952L62.4617 34.471C63.1758 38.0184 65.4117 41.0448 68.443 42.5653C69.8624 43.2775 71.3748 43.6388 72.9401 43.6388C74.7547 43.6388 76.5534 43.1336 78.1398 42.1787L81.2015 40.3358L86.4995 47.484L82.1129 54.4449C77.519 61.7325 77.7341 71.3537 82.6469 78.3855L82.6466 78.3861Z" fill="#C14E31"/>
</svg>
