<svg width="129" height="129" viewBox="0 0 129 129" fill="none" xmlns="http://www.w3.org/2000/svg">
<circle opacity="0.25" cx="84" cy="65" r="32" fill="#F2A95D"/>
<path d="M86.4062 51.4644C87.9252 46.0224 86.4062 40.2002 82.3561 36.1498C78.306 32.0994 72.611 30.7077 67.5483 31.9732C64.7644 27.0374 59.5752 24 53.8801 24C48.3116 24 43.2489 26.9111 40.4648 31.5939C35.1491 30.0748 29.3271 31.4675 25.1503 35.644C21.2266 39.5678 19.7083 45.1363 20.9738 50.5783C16.1639 53.2358 13 58.425 13 64.1201C13 69.6887 15.7846 74.7514 20.5938 77.5356C19.0748 82.9776 20.5938 88.7998 24.6439 92.8502C28.694 96.9006 34.389 98.2923 39.4517 97.0268C42.2362 101.963 47.4249 105 53.1205 105C58.689 105 63.7517 102.089 66.5358 97.4061C71.725 98.9252 77.6735 97.659 81.8503 93.356C85.774 89.4322 87.2923 83.8637 86.0268 78.5481C90.9626 75.7635 94 70.5748 94 64.8792C94 59.3112 91.0889 54.3754 86.4062 51.4643V51.4644ZM58.8156 52.2237C57.8029 51.8438 57.1702 50.9581 57.0437 49.819C56.2845 45.8952 60.0811 37.5421 66.2825 35.0111C69.3205 43.1114 63.2451 54.2487 58.8156 52.2231V52.2237ZM41.7291 34.6313C47.6775 37.2888 51.4742 45.5156 50.5886 49.5656C50.2087 51.3375 48.8167 52.2231 47.5512 52.2231C43.6275 52.3501 38.6917 42.098 41.7292 34.6307L41.7291 34.6313ZM46.9183 76.5239C48.1838 76.5239 49.5758 77.2831 49.9557 79.1814C50.7149 83.1051 46.9183 91.4583 40.7169 93.9893C37.9323 86.5223 42.8681 76.5237 46.9181 76.5237L46.9183 76.5239ZM65.2697 94.243C59.3213 91.5855 55.6511 83.2324 56.4102 79.3088C56.7901 77.5369 58.1821 76.6513 59.4476 76.6513C63.3713 76.6507 68.3071 86.9028 65.2696 94.2436L65.2697 94.243ZM85.1396 76.145C82.3551 69.6903 74.2554 65.3872 69.1927 65.3872C63.6242 65.3872 61.4723 70.5764 64.0035 74.3731C66.788 78.5497 76.2803 82.4734 83.7466 79.6888C84.6322 83.9919 83.3667 88.4219 80.2028 91.7122C76.7855 95.1295 72.1025 96.2687 67.7997 95.1295C71.4698 86.0171 65.395 74.1198 59.6994 74.1198C57.2948 74.1198 54.7636 75.6389 54.1309 78.8028C53.1182 83.7386 57.1683 93.231 64.2559 96.522C61.8512 100.192 57.6747 102.47 53.2453 102.47C48.6888 102.47 44.3858 100.066 41.9812 96.142C49.0688 93.1046 53.6251 83.7388 52.6124 78.5497C51.9796 75.3858 49.4485 73.8667 47.0439 73.8667C41.2219 73.8667 35.147 85.6372 38.438 94.6228C34.2614 95.5085 29.705 94.3699 26.4148 91.079C23.1239 87.7875 21.8583 83.1045 22.871 78.6751C29.9585 81.5862 39.8307 78.1688 42.7409 73.7393C45.1455 70.1955 43.2472 64.7534 37.4252 64.7534C32.4894 64.7534 24.3891 68.6771 21.4782 75.005C17.8081 72.7268 15.5298 68.5502 15.5298 64.12C15.5298 59.5635 17.9344 55.2605 21.8581 52.8558C22.6174 54.6277 23.7565 56.3996 25.149 57.7916C28.06 60.5762 33.3756 63.6136 37.8051 63.6136C43.3736 63.6136 45.5254 58.4244 42.9943 54.6277C40.0832 50.3247 30.5911 46.6545 23.2512 49.312C22.3655 45.0089 23.6311 40.4524 26.795 37.2887C30.2123 33.8713 34.8952 32.7322 39.1981 33.8713C35.528 43.1102 41.6027 54.881 47.2984 54.881C49.703 54.881 52.2341 53.3619 52.8669 50.198C53.8796 45.2622 49.9558 35.7699 42.7419 32.4789C45.2724 28.8092 49.449 26.531 53.8789 26.531C58.4354 26.531 62.7384 28.9356 65.1431 32.8594C58.0555 35.8968 53.4992 45.2626 54.5118 50.4517C54.8917 52.4765 56.0309 53.8691 57.8027 54.6283C65.6493 58.0457 71.8513 43.1113 68.6869 34.3779C72.9899 33.4922 77.4199 34.7578 80.7101 37.9217C84.0009 41.2126 85.2666 45.8949 84.2539 50.325C77.04 47.4139 67.2941 50.9577 64.384 55.2608C61.9794 58.8046 63.8777 64.2467 69.6997 64.2467C74.762 64.2467 82.7357 60.3229 85.6466 53.9951C89.3168 56.3998 91.5951 60.4499 91.5951 65.0058C91.468 69.4358 89.0633 73.7389 85.1398 76.1441L85.1396 76.145ZM82.8615 77.2836C76.6602 79.5617 68.3071 76.3979 66.0285 72.9805C64.6365 70.9557 65.6486 67.9182 69.1924 67.9182C73.3689 67.9182 80.5829 71.5883 82.8612 77.2834L82.8615 77.2836ZM23.7574 76.2715C26.1621 70.8294 33.2497 67.2855 37.4262 67.2855C41.0963 67.2855 42.1092 70.323 40.717 72.3479C38.4389 75.6387 29.9593 78.9291 23.7573 76.2716L23.7574 76.2715ZM24.1373 51.7176C30.2123 49.4395 38.6917 52.6033 40.9703 56.0207C42.3623 58.1725 41.3502 61.083 37.8064 61.083C34.2626 61.083 29.4533 58.4255 26.9222 56.0207C25.7831 54.7551 24.7704 53.3626 24.1376 51.7176H24.1373ZM83.3681 52.7297C80.9635 58.0455 73.8759 61.7157 69.573 61.7157C65.9029 61.7157 64.8901 58.6782 66.2822 56.6533C68.5604 53.3625 77.0399 50.0721 83.3687 52.7296L83.3681 52.7297Z" fill="#C14E31" stroke="#C14E31" stroke-width="0.3"/>
</svg>
