<svg width="129" height="129" viewBox="0 0 129 129" fill="none" xmlns="http://www.w3.org/2000/svg">
<circle opacity="0.25" cx="83" cy="67" r="32" fill="#F2A95D"/>
<path d="M79.7355 51.0467C78.485 49.7437 76.8339 49.0834 74.8293 49.0834C74.2871 49.0834 73.7678 49.1417 73.2712 49.2466C72.7153 47.2658 71.6852 44.3723 69.8753 41.4614C66.9074 36.6886 61.2325 31 51.0542 31C40.8758 31 35.2008 36.6887 32.2331 41.4619C30.4156 44.3847 29.3851 47.2895 28.8306 49.2704C28.3039 49.1513 27.7513 49.084 27.1719 49.084C25.1664 49.084 23.5153 49.7442 22.2643 51.0472C19.9928 53.4127 19.9886 56.9716 20.0017 57.5019V88.9788C20.0017 89.8947 20.7371 90.6366 21.6449 90.6366H26.359L27.5492 97.623C27.6855 98.4184 28.3683 99 29.1685 99H32.7369C33.5432 99 34.2302 98.4099 34.3589 97.606L35.4777 90.6362L66.2644 90.6357L67.4546 97.6221C67.5899 98.4176 68.2736 98.9992 69.0734 98.9992H72.6432C73.4491 98.9992 74.1361 98.4091 74.2639 97.6051L75.3837 90.6354H80.3556C81.263 90.6354 81.9979 89.893 81.9979 88.9776L81.9984 57.5019C82.0111 56.9707 82.0063 53.4122 79.7349 51.0467L79.7355 51.0467ZM35.073 43.1348C38.7491 37.2839 44.126 34.317 51.0552 34.317C57.9838 34.317 63.3612 37.284 67.0361 43.1343C68.8805 46.069 69.8325 49.0478 70.2742 50.7764C70.183 50.8598 70.3611 50.6867 70.2742 50.7764C67.9191 53.2258 67.6475 57.2671 67.6597 57.8168V63.4187L34.3433 63.4192V57.8173C34.357 57.2671 34.1709 53.3073 31.8167 50.8588C31.7579 50.7976 31.8773 50.9167 31.8167 50.8588C32.248 49.1422 33.2015 46.1164 35.074 43.1348L35.073 43.1348ZM34.3423 66.7358H67.6587V76.4763H34.3423V66.7358ZM31.3397 95.6833H30.5536L29.6941 90.6365H32.1493L31.3397 95.6833ZM71.2458 95.6833H70.4601L69.5993 90.6365H72.0554L71.2458 95.6833ZM78.7153 57.427C78.7138 57.4441 78.7138 57.4617 78.7138 57.4792V87.3192L23.2875 87.3197V57.4785C23.2875 57.4614 23.2875 57.4438 23.2871 57.4263C23.2669 56.7532 23.5028 52.3997 27.1727 52.3997C30.8421 52.3997 31.0751 56.9491 31.0578 57.7446C31.0573 57.7607 31.0564 57.7773 31.0564 57.7944V78.135C31.0564 79.0509 31.7918 79.7927 32.7001 79.7927H69.3029C70.2107 79.7927 70.9461 79.0504 70.9461 78.135L70.9456 57.7944C70.9456 57.7782 70.9451 57.7616 70.9442 57.7446C70.9235 57.007 71.0184 52.3997 74.8298 52.3997C78.6412 52.4002 78.7309 56.7005 78.7154 57.4267L78.7153 57.427Z" fill="#C14E31"/>
</svg>
