<svg width="129" height="129" viewBox="0 0 129 129" fill="none" xmlns="http://www.w3.org/2000/svg">
<circle opacity="0.25" cx="87" cy="67" r="32" fill="#F2A95D"/>
<path fill-rule="evenodd" clip-rule="evenodd" d="M83.3074 94H93.2048C94.0792 94 94.9186 93.6525 95.537 93.0335C96.1561 92.4151 96.5035 91.5757 96.5035 90.7012V64.5155C96.5035 62.7453 95.8753 61.0327 94.7305 59.6825L92.347 56.8785C92.3527 56.8072 92.3527 56.7353 92.347 56.6639L88.6852 41.3236H88.6847C88.1916 39.2347 87.0064 37.3749 85.322 36.0447C83.6375 34.7152 81.5527 33.9943 79.4063 34H39.0025C36.8567 33.9943 34.7717 34.7151 33.0873 36.0447C31.4027 37.3748 30.2178 39.2347 29.7241 41.3236L26.0624 56.6639V56.7301L23.1922 59.4927C21.7165 60.9027 20.8796 62.8535 20.875 64.8948V90.6843C20.875 91.5594 21.2225 92.3982 21.8409 93.0172C22.4599 93.6356 23.2987 93.9831 24.1738 93.9831H34.0706C34.9456 93.9831 35.785 93.6356 36.4035 93.0172C37.0225 92.3982 37.37 91.5594 37.37 90.6843V85.1753H79.9932V90.6843C79.9891 91.5651 80.3366 92.4108 80.9597 93.0338C81.5821 93.6563 82.4284 94.0043 83.3086 93.9998L83.3074 94ZM93.1657 91.5256H83.3074C82.8523 91.5256 82.483 91.1563 82.483 90.7012V85.1754H94.0291V90.6844C94.0343 90.9134 93.9434 91.1337 93.7794 91.2937C93.6155 91.4524 93.3933 91.5364 93.1657 91.5256ZM32.1729 41.9097C32.5377 40.3627 33.415 38.9844 34.6622 37.9988C35.9094 37.0139 37.4535 36.4795 39.0431 36.4829H79.3481C80.9377 36.4794 82.4817 37.0139 83.729 37.9988C84.9763 38.9843 85.8536 40.3627 86.2183 41.9097L89.517 55.7244H55.2649C55.2695 55.6611 55.2695 55.5978 55.2649 55.5345C55.2649 51.8221 53.2842 48.391 50.0689 46.5352C46.8536 44.6788 42.8926 44.6788 39.6772 46.5352C36.4619 48.3912 34.4812 51.8221 34.4812 55.5345C34.4766 55.5978 34.4766 55.6611 34.4812 55.7244H28.7903L32.1729 41.9097ZM52.824 55.7571H36.9564C36.961 55.6938 36.961 55.6305 36.9564 55.5672C36.9564 52.7385 38.4654 50.1249 40.9151 48.7108C43.3647 47.2961 46.3833 47.2961 48.8329 48.7108C51.2826 50.1249 52.7916 52.7385 52.7916 55.5672C52.7979 55.6317 52.8088 55.6949 52.8244 55.7571H52.824ZM23.3069 64.9037C23.304 63.5379 23.858 62.2303 24.8406 61.2827L28.1399 58.2313H90.1859L92.8167 61.3241C93.583 62.2268 94.0041 63.3727 94.0041 64.5573V82.7017H23.3071L23.3069 64.9037ZM34.853 90.6927C34.853 90.9119 34.7662 91.1212 34.6114 91.276C34.4572 91.4307 34.2473 91.5176 34.0287 91.5176H24.1318C23.6762 91.5176 23.3069 91.1483 23.3069 90.6926V85.1755H34.853L34.853 90.6926V90.6927ZM29.2956 78.2061H41.0978C41.7807 78.2061 42.3347 77.6521 42.3347 76.9687V68.8863C42.3347 68.2029 41.7807 67.6494 41.0978 67.6494H29.2956C28.6121 67.6494 28.0581 68.2029 28.0581 68.8863V76.9687C28.0581 77.6521 28.6121 78.2061 29.2956 78.2061ZM30.5324 70.1238L39.8603 70.1232V75.7312L30.5324 75.7317V70.1238ZM88.0185 78.2061H76.2162C75.5333 78.2061 74.9793 77.6521 74.9793 76.9687V68.8863C74.9793 68.2029 75.5333 67.6494 76.2162 67.6494H88.0185C88.7019 67.6494 89.2559 68.2029 89.2559 68.8863V76.9687C89.2559 77.6521 88.7019 78.2061 88.0185 78.2061ZM86.7816 70.1232L77.4531 70.1238L77.4537 75.7317L86.7816 75.7312V70.1232Z" fill="#C14E31"/>
<path d="M83.3074 94L83.2467 93.7062L83.3074 94.3V94ZM95.537 93.0335L95.325 92.8213L95.3248 92.8215L95.537 93.0335ZM94.7305 59.6825L94.9593 59.4885L94.9591 59.4882L94.7305 59.6825ZM92.347 56.8785L92.0479 56.8544L92.0379 56.9782L92.1184 57.0728L92.347 56.8785ZM92.347 56.6639L92.646 56.6398L92.6441 56.6168L92.6388 56.5943L92.347 56.6639ZM88.6852 41.3236L88.977 41.254L88.9221 41.0236H88.6852V41.3236ZM88.6847 41.3236L88.3927 41.3926L88.4472 41.6236H88.6847V41.3236ZM85.322 36.0447L85.508 35.8092L85.5079 35.8092L85.322 36.0447ZM79.4063 34V34.3L79.4071 34.3L79.4063 34ZM39.0025 34L39.0017 34.3H39.0025V34ZM33.0873 36.0447L32.9014 35.8092L32.9014 35.8092L33.0873 36.0447ZM29.7241 41.3236L30.0159 41.3933L30.016 41.3926L29.7241 41.3236ZM26.0624 56.6639L25.7706 56.5943L25.7624 56.6286V56.6639H26.0624ZM26.0624 56.7301L26.2704 56.9462L26.3624 56.8577V56.7301H26.0624ZM23.1922 59.4927L23.3995 59.7096L23.4003 59.7088L23.1922 59.4927ZM20.875 64.8948L20.575 64.8941V64.8948H20.875ZM21.8409 93.0172L21.6287 93.2292L21.6289 93.2294L21.8409 93.0172ZM36.4035 93.0172L36.1913 92.8051L36.1913 92.8051L36.4035 93.0172ZM37.37 85.1753V84.8753H37.07V85.1753H37.37ZM79.9932 85.1753H80.2932V84.8753H79.9932V85.1753ZM79.9932 90.6843L80.2932 90.6857V90.6843H79.9932ZM80.9597 93.0338L81.1718 92.8217L81.1718 92.8217L80.9597 93.0338ZM83.3086 93.9998L83.3692 94.2936L83.307 93.6998L83.3086 93.9998ZM93.1657 91.5256L93.1799 91.2259L93.1728 91.2256H93.1657V91.5256ZM82.483 85.1754V84.8754H82.183V85.1754H82.483ZM94.0291 85.1754H94.3291V84.8754H94.0291V85.1754ZM94.0291 90.6844H93.729L93.7292 90.6912L94.0291 90.6844ZM93.7794 91.2937L93.9882 91.5092L93.9889 91.5084L93.7794 91.2937ZM34.6622 37.9988L34.4763 37.7634L34.4762 37.7634L34.6622 37.9988ZM32.1729 41.9097L32.4643 41.9811L32.4649 41.9786L32.1729 41.9097ZM39.0431 36.4829L39.0424 36.7829H39.0431V36.4829ZM79.3481 36.4829V36.7829L79.3488 36.7829L79.3481 36.4829ZM83.729 37.9988L83.915 37.7634L83.9149 37.7634L83.729 37.9988ZM86.2183 41.9097L85.9263 41.9786L85.9265 41.9794L86.2183 41.9097ZM89.517 55.7244V56.0244H89.897L89.8088 55.6547L89.517 55.7244ZM55.2649 55.7244L54.9657 55.7026L54.9423 56.0244H55.2649V55.7244ZM55.2649 55.5345H54.9649V55.5454L54.9657 55.5563L55.2649 55.5345ZM50.0689 46.5352L49.9189 46.795L49.9189 46.795L50.0689 46.5352ZM39.6772 46.5352L39.8272 46.795L39.8272 46.795L39.6772 46.5352ZM34.4812 55.5345L34.7804 55.5563L34.7812 55.5454V55.5345H34.4812ZM34.4812 55.7244V56.0244H34.8038L34.7804 55.7026L34.4812 55.7244ZM28.7903 55.7244L28.4989 55.653L28.408 56.0244H28.7903V55.7244ZM36.9564 55.7571L36.6572 55.7353L36.6338 56.0571H36.9564V55.7571ZM36.9564 55.5672H36.6564V55.5781L36.6572 55.589L36.9564 55.5672ZM40.9151 48.7108L41.0651 48.9706L41.0651 48.9706L40.9151 48.7108ZM48.8329 48.7108L48.6829 48.9706L48.683 48.9706L48.8329 48.7108ZM52.7916 55.5672H52.4916V55.5819L52.493 55.5965L52.7916 55.5672ZM52.8244 55.7571V56.0571H53.2086L53.1154 55.6843L52.8244 55.7571ZM24.8406 61.2827L24.6369 61.0624L24.6324 61.0668L24.8406 61.2827ZM23.3069 64.9037L23.6069 64.9037L23.6069 64.903L23.3069 64.9037ZM28.1399 58.2313V57.9313H28.0224L27.9362 58.0111L28.1399 58.2313ZM90.1859 58.2313L90.4144 58.0369L90.3246 57.9313H90.1859V58.2313ZM92.8167 61.3241L93.0454 61.13L93.0452 61.1297L92.8167 61.3241ZM94.0041 82.7017V83.0017H94.3041V82.7017H94.0041ZM23.3071 82.7017L23.0071 82.7017L23.0071 83.0017H23.3071V82.7017ZM34.6114 91.276L34.3993 91.0638L34.3989 91.0642L34.6114 91.276ZM34.853 90.6927L35.153 90.6927V90.6927H34.853ZM23.3069 85.1755V84.8755H23.0069V85.1755H23.3069ZM34.853 85.1755H35.153L35.153 84.8755H34.853V85.1755ZM34.853 90.6926H35.153H34.853ZM39.8603 70.1232H40.1603V69.8232L39.8603 69.8232L39.8603 70.1232ZM30.5324 70.1238L30.5324 69.8238L30.2324 69.8238V70.1238H30.5324ZM39.8603 75.7312L39.8603 76.0312L40.1603 76.0312V75.7312H39.8603ZM30.5324 75.7317H30.2324V76.0318L30.5325 76.0317L30.5324 75.7317ZM77.4531 70.1238L77.4531 69.8238L77.1531 69.8238L77.1531 70.1238L77.4531 70.1238ZM86.7816 70.1232H87.0816V69.8232L86.7815 69.8232L86.7816 70.1232ZM77.4537 75.7317L77.1537 75.7318L77.1537 76.0318L77.4537 76.0317L77.4537 75.7317ZM86.7816 75.7312L86.7816 76.0312L87.0816 76.0312V75.7312H86.7816ZM93.2048 93.7H83.3074V94.3H93.2048V93.7ZM95.3248 92.8215C94.7627 93.3841 93.9997 93.7 93.2048 93.7V94.3C94.1588 94.3 95.0745 93.9209 95.7493 93.2455L95.3248 92.8215ZM96.2035 90.7012C96.2035 91.4962 95.8876 92.2591 95.325 92.8213L95.7491 93.2457C96.4245 92.571 96.8035 91.6552 96.8035 90.7012H96.2035ZM96.2035 64.5155V90.7012H96.8035V64.5155H96.2035ZM94.5017 59.8765C95.6005 61.1725 96.2035 62.8163 96.2035 64.5155H96.8035C96.8035 62.6742 96.1501 60.8929 94.9593 59.4885L94.5017 59.8765ZM92.1184 57.0728L94.5019 59.8768L94.9591 59.4882L92.5755 56.6842L92.1184 57.0728ZM92.0479 56.6881C92.0524 56.7433 92.0524 56.7991 92.0479 56.8544L92.646 56.9027C92.653 56.8153 92.653 56.7272 92.646 56.6398L92.0479 56.6881ZM88.3934 41.3933L92.0552 56.7336L92.6388 56.5943L88.977 41.254L88.3934 41.3933ZM88.6847 41.6236H88.6852V41.0236H88.6847V41.6236ZM85.1361 36.2801C86.7674 37.5684 87.9152 39.3695 88.3927 41.3926L88.9766 41.2547C88.468 39.0998 87.2454 37.1813 85.508 35.8092L85.1361 36.2801ZM79.4071 34.3C81.4857 34.2945 83.5048 34.9926 85.1362 36.2802L85.5079 35.8092C83.7702 34.4377 81.6196 33.6941 79.4055 33.7L79.4071 34.3ZM39.0025 34.3H79.4063V33.7H39.0025V34.3ZM33.2732 36.2802C34.9044 34.9926 36.9236 34.2945 39.0017 34.3L39.0033 33.7C36.7897 33.6941 34.639 34.4377 32.9014 35.8092L33.2732 36.2802ZM30.016 41.3926C30.4942 39.3695 31.6418 37.5683 33.2732 36.2801L32.9014 35.8092C31.1637 37.1812 29.9414 39.0998 29.4321 41.2546L30.016 41.3926ZM26.3542 56.7336L30.0159 41.3933L29.4323 41.254L25.7706 56.5943L26.3542 56.7336ZM26.3624 56.7301V56.6639H25.7624V56.7301H26.3624ZM23.4003 59.7088L26.2704 56.9462L25.8543 56.5139L22.9842 59.2766L23.4003 59.7088ZM21.175 64.8955C21.1794 62.9359 21.9828 61.0632 23.3995 59.7096L22.985 59.2758C21.4502 60.7423 20.5797 62.7712 20.575 64.8941L21.175 64.8955ZM21.175 90.6843V64.8948H20.575V90.6843H21.175ZM22.0532 92.8051C21.4909 92.2424 21.175 91.4798 21.175 90.6843H20.575C20.575 91.6389 20.9541 92.554 21.6287 93.2292L22.0532 92.8051ZM24.1738 93.6831C23.3783 93.6831 22.6158 93.3672 22.053 92.805L21.6289 93.2294C22.3041 93.904 23.2191 94.2831 24.1738 94.2831V93.6831ZM34.0706 93.6831H24.1738V94.2831H34.0706V93.6831ZM36.1913 92.8051C35.6292 93.3672 34.8661 93.6831 34.0706 93.6831V94.2831C35.0251 94.2831 35.9409 93.9041 36.6156 93.2293L36.1913 92.8051ZM37.07 90.6843C37.07 91.4798 36.7541 92.2423 36.1913 92.8051L36.6156 93.2293C37.2908 92.5541 37.67 91.639 37.67 90.6843H37.07ZM37.07 85.1753V90.6843H37.67V85.1753H37.07ZM79.9932 84.8753H37.37V85.4753H79.9932V84.8753ZM80.2932 90.6843V85.1753H79.6932V90.6843H80.2932ZM81.1718 92.8217C80.6054 92.2554 80.2895 91.4866 80.2932 90.6857L79.6932 90.683C79.6888 91.6437 80.0678 92.5663 80.7475 93.246L81.1718 92.8217ZM83.307 93.6998C82.507 93.7039 81.7377 93.3875 81.1718 92.8217L80.7475 93.246C81.4266 93.9251 82.3498 94.3048 83.3101 94.2997L83.307 93.6998ZM83.368 94.2938L83.3692 94.2936L83.2479 93.7059L83.2467 93.7062L83.368 94.2938ZM83.3074 91.8256H93.1657V91.2256H83.3074V91.8256ZM82.183 90.7012C82.183 91.322 82.6866 91.8256 83.3074 91.8256V91.2256C83.018 91.2256 82.783 90.9906 82.783 90.7012H82.183ZM82.183 85.1754V90.7012H82.783V85.1754H82.183ZM94.0291 84.8754H82.483V85.4754H94.0291V84.8754ZM94.3291 90.6844V85.1754H93.7291V90.6844H94.3291ZM93.9889 91.5084C94.2118 91.291 94.3361 90.9906 94.329 90.6776L93.7292 90.6912C93.7325 90.8361 93.675 90.9765 93.57 91.0789L93.9889 91.5084ZM93.1515 91.8253C93.4619 91.84 93.7648 91.7255 93.9882 91.5092L93.5707 91.0782C93.4662 91.1794 93.3246 91.2328 93.1799 91.2259L93.1515 91.8253ZM34.4762 37.7634C33.1759 38.791 32.2612 40.228 31.8809 41.8409L32.4649 41.9786C32.8141 40.4975 33.6541 39.1778 34.8482 38.2342L34.4762 37.7634ZM39.0437 36.1829C37.3864 36.1794 35.7766 36.7365 34.4763 37.7634L34.8481 38.2342C36.0422 37.2913 37.5206 36.7796 39.0424 36.7829L39.0437 36.1829ZM79.3481 36.1829H39.0431V36.7829H79.3481V36.1829ZM83.9149 37.7634C82.6145 36.7365 81.0048 36.1793 79.3475 36.1829L79.3488 36.7829C80.8706 36.7796 82.3489 37.2913 83.5431 38.2343L83.9149 37.7634ZM86.5103 41.8409C86.1301 40.228 85.2154 38.7909 83.915 37.7634L83.543 38.2342C84.7372 39.1777 85.5772 40.4975 85.9263 41.9786L86.5103 41.8409ZM89.8088 55.6547L86.5101 41.84L85.9265 41.9794L89.2252 55.7941L89.8088 55.6547ZM55.2649 56.0244H89.517V55.4244H55.2649V56.0244ZM54.9657 55.5563C54.9693 55.6051 54.9693 55.6538 54.9657 55.7026L55.5642 55.7461C55.5698 55.6684 55.5698 55.5905 55.5642 55.5128L54.9657 55.5563ZM49.9189 46.795C53.0414 48.5973 54.9649 51.9293 54.9649 55.5345H55.5649C55.5649 51.715 53.5271 48.1848 50.2189 46.2754L49.9189 46.795ZM39.8272 46.795C42.9497 44.9922 46.7964 44.9922 49.9189 46.795L50.2189 46.2754C46.9107 44.3654 42.8354 44.3654 39.5272 46.2754L39.8272 46.795ZM34.7812 55.5345C34.7812 51.9293 36.7047 48.5974 39.8272 46.795L39.5272 46.2754C36.2191 48.185 34.1812 51.715 34.1812 55.5345H34.7812ZM34.7804 55.7026C34.7768 55.6538 34.7768 55.6051 34.7804 55.5563L34.182 55.5128C34.1763 55.5905 34.1763 55.6684 34.182 55.7461L34.7804 55.7026ZM28.7903 56.0244H34.4812V55.4244H28.7903V56.0244ZM31.8815 41.8384L28.4989 55.653L29.0817 55.7957L32.4643 41.9811L31.8815 41.8384ZM36.9564 56.0571H52.824V55.4571H36.9564V56.0571ZM36.6572 55.589C36.6608 55.6378 36.6608 55.6865 36.6572 55.7353L37.2557 55.7788C37.2613 55.7011 37.2613 55.6232 37.2557 55.5455L36.6572 55.589ZM40.7651 48.451C38.2226 49.9187 36.6564 52.6313 36.6564 55.5672H37.2564C37.2564 52.8457 38.7083 50.3311 41.0651 48.9706L40.7651 48.451ZM48.983 48.451C46.4405 46.9827 43.3075 46.9827 40.7651 48.451L41.0651 48.9706C43.4219 47.6095 46.3261 47.6095 48.6829 48.9706L48.983 48.451ZM53.0916 55.5672C53.0916 52.6313 51.5254 49.9186 48.9829 48.451L48.683 48.9706C51.0398 50.3311 52.4916 52.8457 52.4916 55.5672H53.0916ZM53.1154 55.6843C53.1035 55.6366 53.0951 55.5878 53.0901 55.5379L52.493 55.5965C52.5008 55.6755 52.5142 55.7533 52.5333 55.8298L53.1154 55.6843ZM52.824 56.0571H52.8244V55.4571H52.824V56.0571ZM24.6324 61.0668C23.591 62.0711 23.0038 63.4569 23.0069 64.9043L23.6069 64.903C23.6042 63.6189 24.1251 62.3896 25.0489 61.4987L24.6324 61.0668ZM27.9362 58.0111L24.6369 61.0625L25.0443 61.503L28.3436 58.4516L27.9362 58.0111ZM90.1859 57.9313H28.1399V58.5313H90.1859V57.9313ZM93.0452 61.1297L90.4144 58.0369L89.9574 58.4257L92.5882 61.5185L93.0452 61.1297ZM94.3041 64.5573C94.3041 63.3016 93.8577 62.0868 93.0454 61.13L92.588 61.5183C93.3083 62.3667 93.7041 63.4439 93.7041 64.5573H94.3041ZM94.3041 82.7017V64.5573H93.7041V82.7017H94.3041ZM23.3071 83.0017H94.0041V82.4017H23.3071V83.0017ZM23.0069 64.9037L23.0071 82.7017L23.6071 82.7017L23.6069 64.9037L23.0069 64.9037ZM34.8236 91.4881C35.0345 91.2772 35.153 90.9915 35.153 90.6927L34.553 90.6927C34.553 90.8322 34.4978 90.9653 34.3993 91.0638L34.8236 91.4881ZM34.0287 91.8176C34.3267 91.8176 34.6132 91.6992 34.824 91.4877L34.3989 91.0642C34.3013 91.1622 34.1678 91.2176 34.0287 91.2176V91.8176ZM24.1318 91.8176H34.0287V91.2176H24.1318V91.8176ZM23.0069 90.6926C23.0069 91.3139 23.5105 91.8176 24.1318 91.8176V91.2176C23.8419 91.2176 23.6069 90.9826 23.6069 90.6926H23.0069ZM23.0069 85.1755V90.6926H23.6069V85.1755H23.0069ZM34.853 84.8755H23.3069V85.4755H34.853V84.8755ZM35.153 90.6926L35.153 85.1755H34.553L34.553 90.6926H35.153ZM35.153 90.6927V90.6926H34.553V90.6927H35.153ZM41.0978 77.9061H29.2956V78.5061H41.0978V77.9061ZM42.0347 76.9687C42.0347 77.4865 41.6149 77.9061 41.0978 77.9061V78.5061C41.9465 78.5061 42.6347 77.8177 42.6347 76.9687H42.0347ZM42.0347 68.8863V76.9687H42.6347V68.8863H42.0347ZM41.0978 67.9494C41.6151 67.9494 42.0347 68.3686 42.0347 68.8863H42.6347C42.6347 68.0371 41.9463 67.3494 41.0978 67.3494V67.9494ZM29.2956 67.9494H41.0978V67.3494H29.2956V67.9494ZM28.3581 68.8863C28.3581 68.3687 28.7776 67.9494 29.2956 67.9494V67.3494C28.4466 67.3494 27.7581 68.037 27.7581 68.8863H28.3581ZM28.3581 76.9687V68.8863H27.7581V76.9687H28.3581ZM29.2956 77.9061C28.7778 77.9061 28.3581 77.4864 28.3581 76.9687H27.7581C27.7581 77.8178 28.4464 78.5061 29.2956 78.5061V77.9061ZM39.8603 69.8232L30.5324 69.8238L30.5325 70.4238L39.8603 70.4232L39.8603 69.8232ZM40.1603 75.7312V70.1232H39.5603V75.7312H40.1603ZM30.5325 76.0317L39.8603 76.0312L39.8603 75.4312L30.5324 75.4317L30.5325 76.0317ZM30.2324 70.1238V75.7317H30.8324V70.1238H30.2324ZM76.2162 78.5061H88.0185V77.9061H76.2162V78.5061ZM74.6793 76.9687C74.6793 77.8177 75.3675 78.5061 76.2162 78.5061V77.9061C75.6991 77.9061 75.2793 77.4865 75.2793 76.9687H74.6793ZM74.6793 68.8863V76.9687H75.2793V68.8863H74.6793ZM76.2162 67.3494C75.3677 67.3494 74.6793 68.0371 74.6793 68.8863H75.2793C75.2793 68.3686 75.6989 67.9494 76.2162 67.9494V67.3494ZM88.0185 67.3494H76.2162V67.9494H88.0185V67.3494ZM89.5559 68.8863C89.5559 68.037 88.8674 67.3494 88.0185 67.3494V67.9494C88.5364 67.9494 88.9559 68.3687 88.9559 68.8863H89.5559ZM89.5559 76.9687V68.8863H88.9559V76.9687H89.5559ZM88.0185 78.5061C88.8676 78.5061 89.5559 77.8178 89.5559 76.9687H88.9559C88.9559 77.4864 88.5362 77.9061 88.0185 77.9061V78.5061ZM77.4531 70.4238L86.7816 70.4232L86.7815 69.8232L77.4531 69.8238L77.4531 70.4238ZM77.7537 75.7317L77.7531 70.1237L77.1531 70.1238L77.1537 75.7318L77.7537 75.7317ZM86.7815 75.4312L77.4537 75.4317L77.4537 76.0317L86.7816 76.0312L86.7815 75.4312ZM86.4816 70.1232V75.7312H87.0816V70.1232H86.4816Z" fill="#C14E31"/>
</svg>
