<svg width="135" height="18" viewBox="0 0 135 18" fill="none" xmlns="http://www.w3.org/2000/svg">
<path d="M2.29545 3.36364L5.53409 12.8409H5.66477L8.90341 3.36364H10.8011L6.61364 15H4.58523L0.397727 3.36364H2.29545ZM12.0252 15V6.27273H13.724V15H12.0252ZM12.8831 4.92614C12.5877 4.92614 12.3339 4.82765 12.1218 4.63068C11.9134 4.42992 11.8093 4.19129 11.8093 3.91477C11.8093 3.63447 11.9134 3.39583 12.1218 3.19886C12.3339 2.99811 12.5877 2.89773 12.8831 2.89773C13.1786 2.89773 13.4305 2.99811 13.6388 3.19886C13.8509 3.39583 13.957 3.63447 13.957 3.91477C13.957 4.19129 13.8509 4.42992 13.6388 4.63068C13.4305 4.82765 13.1786 4.92614 12.8831 4.92614ZM19.4509 15.1761C18.5911 15.1761 17.8505 14.9924 17.2293 14.625C16.6119 14.2538 16.1346 13.733 15.7975 13.0625C15.4642 12.3883 15.2975 11.5985 15.2975 10.6932C15.2975 9.79924 15.4642 9.01136 15.7975 8.32955C16.1346 7.64773 16.6043 7.11553 17.2066 6.73295C17.8127 6.35038 18.521 6.15909 19.3316 6.15909C19.824 6.15909 20.3013 6.24053 20.7634 6.40341C21.2255 6.56629 21.6403 6.82197 22.0077 7.17045C22.3752 7.51894 22.6649 7.97159 22.877 8.52841C23.0892 9.08144 23.1952 9.75379 23.1952 10.5455V11.1477H16.2577V9.875H21.5305C21.5305 9.42803 21.4395 9.0322 21.2577 8.6875C21.0759 8.33902 20.8202 8.06439 20.4907 7.86364C20.1649 7.66288 19.7823 7.5625 19.343 7.5625C18.8657 7.5625 18.449 7.67992 18.093 7.91477C17.7407 8.14583 17.468 8.44886 17.2748 8.82386C17.0854 9.19508 16.9907 9.59848 16.9907 10.0341V11.0284C16.9907 11.6117 17.093 12.108 17.2975 12.517C17.5058 12.9261 17.7956 13.2386 18.1668 13.4545C18.538 13.6667 18.9717 13.7727 19.468 13.7727C19.7899 13.7727 20.0835 13.7273 20.3486 13.6364C20.6138 13.5417 20.843 13.4015 21.0361 13.2159C21.2293 13.0303 21.377 12.8011 21.4793 12.5284L23.0873 12.8182C22.9585 13.2917 22.7274 13.7064 22.3941 14.0625C22.0645 14.4148 21.6498 14.6894 21.1498 14.8864C20.6536 15.0795 20.0873 15.1761 19.4509 15.1761ZM26.6366 15L24.0684 6.27273H25.8241L27.5343 12.6818H27.6195L29.3355 6.27273H31.0911L32.7957 12.6534H32.8809L34.5798 6.27273H36.3355L33.773 15H32.04L30.2673 8.69886H30.1366L28.3639 15H26.6366ZM48.025 6.42045C47.9644 5.88258 47.7144 5.46591 47.275 5.17045C46.8356 4.87121 46.2826 4.72159 45.6159 4.72159C45.1386 4.72159 44.7258 4.79735 44.3773 4.94886C44.0288 5.09659 43.758 5.30114 43.5648 5.5625C43.3754 5.82008 43.2807 6.11364 43.2807 6.44318C43.2807 6.7197 43.3451 6.95833 43.4739 7.15909C43.6064 7.35985 43.7788 7.52841 43.9909 7.66477C44.2068 7.79735 44.4379 7.90909 44.6841 8C44.9303 8.08712 45.167 8.15909 45.3943 8.21591L46.5307 8.51136C46.9019 8.60227 47.2826 8.72538 47.6727 8.88068C48.0629 9.03598 48.4246 9.24053 48.758 9.49432C49.0913 9.74811 49.3602 10.0625 49.5648 10.4375C49.7731 10.8125 49.8773 11.2614 49.8773 11.7841C49.8773 12.4432 49.7068 13.0284 49.3659 13.5398C49.0288 14.0511 48.5383 14.4545 47.8943 14.75C47.2542 15.0455 46.4795 15.1932 45.5705 15.1932C44.6992 15.1932 43.9455 15.0549 43.3091 14.7784C42.6727 14.5019 42.1746 14.1098 41.8148 13.6023C41.4549 13.0909 41.2561 12.4848 41.2182 11.7841H42.9795C43.0136 12.2045 43.15 12.5549 43.3886 12.8352C43.6311 13.1117 43.9398 13.3182 44.3148 13.4545C44.6936 13.5871 45.1083 13.6534 45.5591 13.6534C46.0553 13.6534 46.4966 13.5758 46.883 13.4205C47.2731 13.2614 47.5799 13.0417 47.8034 12.7614C48.0269 12.4773 48.1386 12.1458 48.1386 11.767C48.1386 11.4223 48.0402 11.1402 47.8432 10.9205C47.65 10.7008 47.3867 10.5189 47.0534 10.375C46.7239 10.2311 46.3508 10.1042 45.9341 9.99432L44.5591 9.61932C43.6273 9.36553 42.8886 8.99242 42.3432 8.5C41.8015 8.00758 41.5307 7.35606 41.5307 6.54545C41.5307 5.875 41.7125 5.28977 42.0761 4.78977C42.4398 4.28977 42.9322 3.90151 43.5534 3.625C44.1746 3.3447 44.8754 3.20455 45.6557 3.20455C46.4436 3.20455 47.1386 3.3428 47.7409 3.61932C48.347 3.89583 48.8242 4.27652 49.1727 4.76136C49.5212 5.24242 49.703 5.79545 49.7182 6.42045H48.025ZM55.2803 15.1761C54.4204 15.1761 53.6799 14.9924 53.0587 14.625C52.4413 14.2538 51.964 13.733 51.6269 13.0625C51.2935 12.3883 51.1269 11.5985 51.1269 10.6932C51.1269 9.79924 51.2935 9.01136 51.6269 8.32955C51.964 7.64773 52.4337 7.11553 53.036 6.73295C53.642 6.35038 54.3504 6.15909 55.161 6.15909C55.6534 6.15909 56.1307 6.24053 56.5928 6.40341C57.0549 6.56629 57.4697 6.82197 57.8371 7.17045C58.2045 7.51894 58.4943 7.97159 58.7064 8.52841C58.9185 9.08144 59.0246 9.75379 59.0246 10.5455V11.1477H52.0871V9.875H57.3598C57.3598 9.42803 57.2689 9.0322 57.0871 8.6875C56.9053 8.33902 56.6496 8.06439 56.3201 7.86364C55.9943 7.66288 55.6117 7.5625 55.1723 7.5625C54.6951 7.5625 54.2784 7.67992 53.9223 7.91477C53.5701 8.14583 53.2973 8.44886 53.1041 8.82386C52.9148 9.19508 52.8201 9.59848 52.8201 10.0341V11.0284C52.8201 11.6117 52.9223 12.108 53.1269 12.517C53.3352 12.9261 53.625 13.2386 53.9962 13.4545C54.3674 13.6667 54.8011 13.7727 55.2973 13.7727C55.6193 13.7727 55.9129 13.7273 56.178 13.6364C56.4432 13.5417 56.6723 13.4015 56.8655 13.2159C57.0587 13.0303 57.2064 12.8011 57.3087 12.5284L58.9166 12.8182C58.7879 13.2917 58.5568 13.7064 58.2235 14.0625C57.8939 14.4148 57.4791 14.6894 56.9791 14.8864C56.4829 15.0795 55.9166 15.1761 55.2803 15.1761ZM60.5895 15V6.27273H62.2316V7.65909H62.3225C62.4816 7.18939 62.7619 6.82008 63.1634 6.55114C63.5687 6.27841 64.027 6.14205 64.5384 6.14205C64.6445 6.14205 64.7695 6.14583 64.9134 6.15341C65.0611 6.16098 65.1767 6.17045 65.26 6.18182V7.80682C65.1918 7.78788 65.0706 7.76705 64.8964 7.74432C64.7221 7.7178 64.5479 7.70455 64.3736 7.70455C63.9721 7.70455 63.6142 7.78977 63.2998 7.96023C62.9892 8.12689 62.743 8.35985 62.5611 8.65909C62.3793 8.95455 62.2884 9.29167 62.2884 9.67045V15H60.5895ZM74.1417 6.27273L70.9769 15H69.1588L65.9883 6.27273H67.8122L70.0224 12.9886H70.1133L72.3178 6.27273H74.1417ZM75.4183 15V6.27273H77.1172V15H75.4183ZM76.2763 4.92614C75.9808 4.92614 75.727 4.82765 75.5149 4.63068C75.3066 4.42992 75.2024 4.19129 75.2024 3.91477C75.2024 3.63447 75.3066 3.39583 75.5149 3.19886C75.727 2.99811 75.9808 2.89773 76.2763 2.89773C76.5717 2.89773 76.8236 2.99811 77.0319 3.19886C77.2441 3.39583 77.3501 3.63447 77.3501 3.91477C77.3501 4.19129 77.2441 4.42992 77.0319 4.63068C76.8236 4.82765 76.5717 4.92614 76.2763 4.92614ZM82.7588 15.1761C81.9141 15.1761 81.1868 14.9848 80.577 14.6023C79.9709 14.2159 79.505 13.6837 79.1793 13.0057C78.8535 12.3277 78.6906 11.5511 78.6906 10.6761C78.6906 9.78977 78.8573 9.00758 79.1906 8.32955C79.524 7.64773 79.9937 7.11553 80.5997 6.73295C81.2058 6.35038 81.9198 6.15909 82.7418 6.15909C83.4046 6.15909 83.9956 6.2822 84.5145 6.52841C85.0334 6.77083 85.452 7.11174 85.7702 7.55114C86.0921 7.99053 86.2834 8.50379 86.344 9.09091H84.6906C84.5997 8.68182 84.3914 8.32955 84.0656 8.03409C83.7437 7.73864 83.3118 7.59091 82.7702 7.59091C82.2967 7.59091 81.8819 7.71591 81.5259 7.96591C81.1736 8.21212 80.899 8.56439 80.702 9.02273C80.505 9.47727 80.4065 10.0152 80.4065 10.6364C80.4065 11.2727 80.5031 11.822 80.6963 12.2841C80.8895 12.7462 81.1622 13.1042 81.5145 13.358C81.8706 13.6117 82.2891 13.7386 82.7702 13.7386C83.0921 13.7386 83.3838 13.6799 83.6452 13.5625C83.9103 13.4413 84.1319 13.2689 84.3099 13.0455C84.4918 12.822 84.6187 12.553 84.6906 12.2386H86.344C86.2834 12.803 86.0997 13.3068 85.7929 13.75C85.4861 14.1932 85.0751 14.5417 84.5599 14.7955C84.0486 15.0492 83.4482 15.1761 82.7588 15.1761ZM91.6022 15.1761C90.7423 15.1761 90.0018 14.9924 89.3806 14.625C88.7631 14.2538 88.2859 13.733 87.9488 13.0625C87.6154 12.3883 87.4488 11.5985 87.4488 10.6932C87.4488 9.79924 87.6154 9.01136 87.9488 8.32955C88.2859 7.64773 88.7556 7.11553 89.3578 6.73295C89.9639 6.35038 90.6722 6.15909 91.4828 6.15909C91.9753 6.15909 92.4525 6.24053 92.9147 6.40341C93.3768 6.56629 93.7916 6.82197 94.159 7.17045C94.5264 7.51894 94.8162 7.97159 95.0283 8.52841C95.2404 9.08144 95.3465 9.75379 95.3465 10.5455V11.1477H88.409V9.875H93.6817C93.6817 9.42803 93.5908 9.0322 93.409 8.6875C93.2272 8.33902 92.9715 8.06439 92.6419 7.86364C92.3162 7.66288 91.9336 7.5625 91.4942 7.5625C91.0169 7.5625 90.6003 7.67992 90.2442 7.91477C89.8919 8.14583 89.6192 8.44886 89.426 8.82386C89.2366 9.19508 89.1419 9.59848 89.1419 10.0341V11.0284C89.1419 11.6117 89.2442 12.108 89.4488 12.517C89.6571 12.9261 89.9469 13.2386 90.3181 13.4545C90.6893 13.6667 91.123 13.7727 91.6192 13.7727C91.9412 13.7727 92.2347 13.7273 92.4999 13.6364C92.765 13.5417 92.9942 13.4015 93.1874 13.2159C93.3806 13.0303 93.5283 12.8011 93.6306 12.5284L95.2385 12.8182C95.1097 13.2917 94.8787 13.7064 94.5453 14.0625C94.2158 14.4148 93.801 14.6894 93.301 14.8864C92.8048 15.0795 92.2385 15.1761 91.6022 15.1761Z" fill="#C14E31"/>
<g clip-path="url(#clip0_56_5015)">
<path d="M114 9H132" stroke="#C14E31" stroke-width="2" stroke-linecap="round"/>
<path d="M128 4L133.816 8.84636C133.912 8.92631 133.912 9.07369 133.816 9.15364L128 14" stroke="#C14E31" stroke-width="2" stroke-linecap="round"/>
</g>
<defs>
<clipPath id="clip0_56_5015">
<rect width="22" height="12" fill="white" transform="translate(113 3)"/>
</clipPath>
</defs>
</svg>
