<svg width="54" height="48" viewBox="0 0 54 48" fill="none" xmlns="http://www.w3.org/2000/svg">
<g clip-path="url(#clip0_55_4552)">
<path d="M41.2327 2.68947C31.5587 -2.10647 21.0899 0.932816 20.4302 1.13307C2.90939 6.48415 -6.08837 22.9582 4.62063 33.4474C6.74035 35.526 9.69912 37.1128 13.1271 38.1825C12.1445 37.0241 9.26303 33.2269 8.4295 27.5691C8.32186 26.8365 8.95391 26.2078 9.72948 26.2078C9.79848 26.2078 9.86749 26.2129 9.93649 26.2231L13.4142 26.7275L14.5127 26.8872C15.429 27.019 16.1825 27.6172 16.4612 28.4284C17.0933 30.2661 18.7825 33.3942 22.9474 33.3942H32.5468C36.7117 33.3942 38.4009 30.2687 39.033 28.4284C39.3117 27.6172 40.0652 27.019 40.9815 26.8872L42.08 26.7275L45.5577 26.2231C45.6267 26.2129 45.6985 26.2078 45.7647 26.2078C46.5403 26.2078 47.1723 26.8365 47.0647 27.5691C46.6369 30.4816 45.7261 32.8061 44.8235 34.5222C47.6167 32.7909 50.247 30.7427 51.8175 28C55.0992 22.2712 53.5757 8.80861 41.2327 2.68947ZM40.8104 25.8859C39.4746 26.0786 38.3899 26.9379 37.9814 28.1242C37.8848 28.403 37.7716 28.6895 37.6391 28.9734C36.1763 28.6945 32.5165 28.1014 27.7471 28.1014C22.9253 28.1014 19.2737 28.7072 17.8606 28.981C17.7254 28.692 17.6094 28.403 17.5128 28.1217C17.1043 26.9353 16.0196 26.0786 14.6838 25.8834L13.6708 25.7364C14.118 24.1267 14.8577 21.9544 16.0776 19.3511C16.6434 18.1445 17.8551 17.2978 19.2737 17.1255C21.1754 16.8948 24.1563 16.6286 27.7499 16.6286C31.3434 16.6286 34.3243 16.8948 36.226 17.1255C37.6446 17.2978 38.8563 18.1445 39.4221 19.3511C40.6393 21.9518 41.379 24.1242 41.8289 25.7364L40.8104 25.8859Z" fill="#F2A95D"/>
<path d="M13.1246 47.9999H15.1643L21.275 39.6882C19.4644 39.5513 17.698 39.2978 16.0116 38.9353L13.1246 47.9999Z" fill="#F2A95D"/>
<path d="M40.3328 48.0001H42.3725L38.9776 37.3359C37.2498 37.9697 35.453 38.4792 33.6204 38.867L40.3328 48.0001Z" fill="#F2A95D"/>
</g>
<defs>
<clipPath id="clip0_55_4552">
<rect width="53.3131" height="48" fill="white"/>
</clipPath>
</defs>
</svg>
