<svg width="80" height="32" viewBox="0 0 80 32" fill="none" xmlns="http://www.w3.org/2000/svg">
<g clip-path="url(#clip0_74_3575)">
<path d="M23.169 0H8.83066C3.96143 0 0 3.96162 0 8.83084V23.1692C0 28.0386 3.96143 32 8.83066 32H23.169C28.0386 32 32 28.0384 32 23.1692V8.83084C32.0002 3.96162 28.0386 0 23.169 0ZM29.161 23.1692C29.161 26.473 26.473 29.1608 23.1692 29.1608H8.83066C5.52697 29.161 2.8392 26.473 2.8392 23.1692V8.83084C2.8392 5.52716 5.52697 2.8392 8.83066 2.8392H23.169C26.4728 2.8392 29.1608 5.52716 29.1608 8.83084V23.1692H29.161Z" fill="#4F362B"/>
<path d="M16.0002 7.75562C11.4535 7.75562 7.75458 11.4545 7.75458 16.0012C7.75458 20.5477 11.4535 24.2464 16.0002 24.2464C20.5469 24.2464 24.2458 20.5477 24.2458 16.0012C24.2458 11.4545 20.5469 7.75562 16.0002 7.75562ZM16.0002 21.407C13.0192 21.407 10.5938 18.982 10.5938 16.001C10.5938 13.0199 13.019 10.5946 16.0002 10.5946C18.9813 10.5946 21.4066 13.0199 21.4066 16.001C21.4066 18.982 18.9811 21.407 16.0002 21.407Z" fill="#4F362B"/>
<path d="M24.5914 5.34741C24.0444 5.34741 23.507 5.56887 23.1207 5.95689C22.7325 6.34302 22.5093 6.88058 22.5093 7.42949C22.5093 7.9767 22.7327 8.51406 23.1207 8.90208C23.5068 9.28821 24.0444 9.51157 24.5914 9.51157C25.1403 9.51157 25.676 9.28821 26.064 8.90208C26.452 8.51406 26.6735 7.97651 26.6735 7.42949C26.6735 6.88058 26.452 6.34302 26.064 5.95689C25.6779 5.56887 25.1403 5.34741 24.5914 5.34741Z" fill="#4F362B"/>
</g>
<g clip-path="url(#clip1_74_3575)">
<path d="M48.0001 18.5C48.0001 16.8124 48.0001 15.1254 48.0001 13.4378C48.0163 13.3157 48.0451 13.1942 48.0483 13.0715C48.1147 10.583 48.2988 8.10258 48.558 5.62659C48.8248 3.0811 51.0108 0.852457 53.5538 0.567536C55.748 0.32144 57.9491 0.159881 60.1552 0.074092C64.8968 -0.11001 69.6271 0.0484179 74.3468 0.555639C76.9248 0.833045 79.1416 2.99218 79.4334 5.55709C79.6813 7.74064 79.8385 9.93171 79.9256 12.1272C80.1128 16.8687 79.9556 21.5997 79.4465 26.3187C79.176 28.826 77.2285 30.9663 74.745 31.3702C72.8119 31.6846 70.8519 31.7554 68.8988 31.8768C68.0791 31.9282 67.2557 31.9 66.4379 31.9989C64.7922 31.9989 63.1466 31.9989 61.5003 31.9989C61.3732 31.937 61.2348 31.9539 61.1014 31.9507C58.6148 31.8869 56.1369 31.704 53.664 31.4435C51.1893 31.183 49.0345 29.2249 48.6331 26.7646C48.3157 24.8246 48.2418 22.8558 48.1215 20.8939C48.0727 20.0962 48.1009 19.2946 48.0001 18.5ZM61.6318 21.5477C61.6318 22.8496 61.6312 24.1508 61.6324 25.4527C61.633 25.8941 61.7401 25.9987 62.1878 25.9993C63.0313 26 63.8748 26 64.7183 25.9993C65.2199 25.9993 65.3113 25.9067 65.312 25.3951C65.3151 22.8439 65.3251 20.2922 65.3113 17.741C65.3095 17.4079 65.4121 17.349 65.7127 17.3565C66.5143 17.3766 67.3164 17.3659 68.118 17.3622C68.5337 17.3603 68.7072 17.2006 68.7548 16.7955C68.8544 15.9582 68.9558 15.1216 69.0516 14.2844C69.1155 13.7252 68.9239 13.5123 68.3622 13.5117C67.4248 13.5104 66.488 13.5092 65.5505 13.5136C65.3934 13.5142 65.3026 13.4979 65.3057 13.2994C65.3182 12.4872 65.2963 11.6744 65.322 10.8629C65.3508 9.96302 65.8261 9.48523 66.7265 9.43451C67.2663 9.40445 67.8092 9.42073 68.3503 9.40821C68.7611 9.39882 68.947 9.21784 68.9508 8.81645C68.9571 8.07691 68.9571 7.338 68.9508 6.59845C68.9477 6.19205 68.7598 6.00419 68.3572 6.00169C67.5656 5.9973 66.7741 5.98854 65.9832 6.00482C63.5768 6.05491 61.8929 7.64546 61.6806 10.0482C61.5867 11.109 61.6487 12.171 61.6374 13.2324C61.6349 13.4441 61.5898 13.5223 61.3631 13.5161C60.7701 13.5004 60.1759 13.5086 59.5829 13.5117C59.1182 13.5142 58.9335 13.6952 58.9329 14.151C58.9322 15.0052 58.9341 15.8587 58.9385 16.7128C58.941 17.1724 59.1251 17.3591 59.5829 17.3622C60.1659 17.3659 60.7495 17.3772 61.3318 17.3572C61.5879 17.3484 61.6387 17.4367 61.6368 17.674C61.6261 18.9653 61.6318 20.2565 61.6318 21.5477Z" fill="#4F362B"/>
</g>
<defs>
<clipPath id="clip0_74_3575">
<rect width="32" height="32" fill="white"/>
</clipPath>
<clipPath id="clip1_74_3575">
<rect width="32.0006" height="32" fill="white" transform="translate(48)"/>
</clipPath>
</defs>
</svg>
