<svg width="74" height="70" viewBox="0 0 74 70" fill="none" xmlns="http://www.w3.org/2000/svg">
<path d="M70.6402 26.5711L60.988 18.1748V1.99276C60.988 1.37313 60.4859 0.862793 59.858 0.862793H13.3981C12.7785 0.862793 12.2682 1.36482 12.2682 1.99276V18.9856L3.36091 26.5616C1.82039 27.8757 1 29.6674 1 31.735V62.2983C1 66.0737 4.07209 69.1374 7.84756 69.1374H66.1524C69.9279 69.1374 73 66.0653 73 62.2983V31.735C72.9917 29.6924 72.1796 27.9091 70.6397 26.5699L70.6402 26.5711ZM69.1669 28.2702C70.2131 29.1827 70.7406 30.346 70.7406 31.7355V33.7614L60.9885 40.2322L60.988 21.1632L69.1669 28.2702ZM58.7364 3.11464V41.7228L37.0643 56.1126L14.5288 41.0369V3.11606L58.7364 3.11464ZM4.82673 28.2787L12.2683 21.9416V39.5209L3.26122 33.4939V31.7365C3.26122 30.3297 3.78876 29.1664 4.82659 28.2789L4.82673 28.2787ZM66.1536 66.8869H7.8487C5.32078 66.8869 3.26108 64.8277 3.26108 62.2993V36.2149L36.4445 58.4153C36.637 58.5407 36.8544 58.6078 37.0724 58.6078C37.2899 58.6078 37.5079 58.549 37.7004 58.4236L70.7488 36.4831V62.3076C70.7405 64.8277 68.6813 66.8868 66.153 66.8868L66.1536 66.8869ZM30.1158 18.1918C30.1158 17.5722 30.6178 17.0618 31.2458 17.0618H42.6054C43.225 17.0618 43.7354 17.5639 43.7354 18.1918C43.7354 18.8197 43.2333 19.3218 42.6054 19.3218H31.2458C30.6261 19.3134 30.1158 18.8114 30.1158 18.1918ZM24.2978 25.9768C24.2978 25.3571 24.7998 24.8468 25.4278 24.8468H48.4319C49.0515 24.8468 49.5619 25.3488 49.5619 25.9768C49.5619 26.6047 49.0599 27.1067 48.4319 27.1067L25.4193 27.1073C24.7996 27.1073 24.2976 26.5964 24.2976 25.9768H24.2978Z" fill="#1BB57C" stroke="#1BB57C"/>
</svg>
