<svg width="48" height="48" viewBox="0 0 48 48" fill="none" xmlns="http://www.w3.org/2000/svg">
<path d="M43.6875 0.666992H4.31246C3.34563 0.666992 2.41829 1.05111 1.73429 1.73466C1.0507 2.41858 0.666626 3.34599 0.666626 4.31282V43.6878C0.666626 44.6547 1.05074 45.582 1.73429 46.266C2.41821 46.9496 3.34563 47.3337 4.31246 47.3337H43.6875C44.6543 47.3337 45.5816 46.9495 46.2656 46.266C46.9492 45.5821 47.3333 44.6547 47.3333 43.6878V4.31282C47.3333 3.34599 46.9492 2.41866 46.2656 1.73466C45.5817 1.05107 44.6543 0.666992 43.6875 0.666992ZM45.875 43.6878C45.875 44.2679 45.6445 44.8246 45.2343 45.2347C44.8242 45.6447 44.2675 45.8753 43.6875 45.8753H4.3125C3.73243 45.8753 3.17575 45.6448 2.76567 45.2347C2.35558 44.8245 2.12504 44.2678 2.12504 43.6878V4.31282C2.12504 3.73275 2.35551 3.17608 2.76567 2.76599C3.17583 2.35591 3.7325 2.12537 4.3125 2.12537H43.6875C44.2676 2.12537 44.8242 2.35583 45.2343 2.76599C45.6444 3.17615 45.875 3.73283 45.875 4.31282V43.6878ZM19.625 15.9795C19.625 14.2389 18.9335 12.5697 17.7028 11.3392C16.4723 10.1083 14.803 9.41699 13.0625 9.41699C11.3219 9.41699 9.65262 10.1084 8.42212 11.3392C7.19129 12.5697 6.49996 14.2389 6.49996 15.9795C6.49996 17.7201 7.19137 19.3893 8.42212 20.6198C9.65262 21.8507 11.3219 22.542 13.0625 22.542C14.802 22.5394 16.4697 21.847 17.6998 20.6168C18.93 19.3867 19.6223 17.7191 19.625 15.9795ZM7.95829 15.9795C7.95829 14.6257 8.49605 13.3275 9.45337 12.3704C10.4104 11.4131 11.7085 10.8753 13.0625 10.8753C14.4164 10.8753 15.7145 11.4131 16.6715 12.3704C17.6289 13.3274 18.1666 14.6256 18.1666 15.9795C18.1666 17.3334 17.6289 18.6315 16.6715 19.5886C15.7145 20.5459 14.4164 21.0837 13.0625 21.0837C11.7085 21.0837 10.4105 20.5459 9.45337 19.5886C8.49604 18.6316 7.95829 17.3334 7.95829 15.9795ZM39.3125 6.50032H27.6458C27.0657 6.50032 26.509 6.73079 26.099 7.14095C25.6889 7.55111 25.4583 8.10778 25.4583 8.68778V28.9586L22.9645 25.1523C22.2942 24.1158 21.1438 23.4899 19.9095 23.4899C18.6748 23.4899 17.5247 24.1158 16.8542 25.1523L9.85417 35.8564C9.37174 36.5931 9.17187 37.4795 9.29199 38.3515C9.41211 39.2239 9.84375 40.0234 10.5075 40.6022C11.1709 41.181 12.0215 41.4999 12.902 41.5003H26.917C27.7959 41.496 28.6439 41.1751 29.3053 40.5963C29.9668 40.0175 30.3977 39.2199 30.5188 38.3495C30.6399 37.4788 30.4433 36.5937 29.9648 35.8564L29.8336 35.6669H39.3128C39.8928 35.6669 40.4495 35.4364 40.8596 35.0263C41.2697 34.6161 41.5002 34.0595 41.5002 33.4795V8.68779C41.5002 8.10772 41.2698 7.55104 40.8596 7.14096C40.4494 6.73087 39.8928 6.50033 39.3128 6.50033L39.3125 6.50032ZM28.8416 38.8903C28.658 39.2409 28.381 39.5342 28.0415 39.7377C27.7016 39.9408 27.3123 40.0462 26.9165 40.0423H12.9015C12.324 40.0423 11.7697 39.8138 11.3598 39.4069C10.95 38.9997 10.7179 38.4469 10.714 37.8695C10.713 37.4388 10.84 37.0176 11.0786 36.6589L18.0786 25.9406C18.4829 25.3234 19.171 24.9513 19.909 24.9513C20.6466 24.9513 21.3347 25.3234 21.7391 25.9406L25.4578 31.6281V33.4803C25.4578 34.0604 25.6883 34.6171 26.0984 35.0272C26.5086 35.4373 27.0653 35.6678 27.6453 35.6678H28.0974L28.739 36.6593C28.9581 36.9864 29.0838 37.3673 29.1017 37.7609C29.1196 38.1541 29.0294 38.5451 28.8412 38.8908L28.8416 38.8903ZM40.0416 33.4798C40.0416 33.6732 39.9648 33.8587 39.8281 33.9954C39.6914 34.1322 39.5058 34.209 39.3125 34.209H27.6458C27.2431 34.209 26.9166 33.8825 26.9166 33.4798V8.68816C26.9166 8.28549 27.2431 7.95899 27.6458 7.95899H39.3125C39.5058 7.95899 39.6914 8.03581 39.8281 8.17253C39.9648 8.30925 40.0416 8.4948 40.0416 8.68816V33.4798Z" fill="#F2A95D" stroke="#F2A95D" stroke-width="0.186667"/>
</svg>
